<svg width="17" height="196" viewBox="0 0 17 196" fill="none" xmlns="http://www.w3.org/2000/svg">
<path d="M4.74 189.36H7.3L7.3 182.84C7.3 181.693 6.87333 181.12 6.02 181.12H6C5.16 181.12 4.74 181.693 4.74 182.84L4.74 189.36ZM10.9 189.36H16V195.04H1.12L1.12 181.52C1.12 177.347 2.39333 175.26 4.94 175.26H5.16C5.66667 175.26 6.12667 175.36 6.54 175.56C6.95333 175.76 7.28667 176.027 7.54 176.36C7.79333 176.68 7.99333 177 8.14 177.32C8.28667 177.627 8.4 177.94 8.48 178.26C8.69333 177.313 9.10667 176.567 9.72 176.02C10.32 175.473 11.0867 175.2 12.02 175.2H14.22C14.9933 175.2 15.5533 175.107 15.9 174.92H16V180.72C15.8667 180.84 15.6067 180.9 15.22 180.9H13.48C12.6 180.9 11.9533 181.133 11.54 181.6C11.1133 182.053 10.9 182.827 10.9 183.92L10.9 189.36ZM1.12 173.634L1.12 157.174H4.76L4.76 168.034H6.62L6.62 157.394H10.24L10.24 168.034H12.28V157.014H16L16 173.634H1.12ZM16 155.372H1.12L1.12 144.812C1.12 143.159 1.25333 141.692 1.52 140.412C1.78667 139.132 2.14 138.099 2.58 137.312C3.02 136.525 3.55333 135.885 4.18 135.392C4.80667 134.885 5.44 134.539 6.08 134.352C6.72 134.165 7.41333 134.072 8.16 134.072H8.76C9.49333 134.072 10.18 134.159 10.82 134.332C11.46 134.492 12.1067 134.819 12.76 135.312C13.4133 135.792 13.9733 136.419 14.44 137.192C14.8933 137.952 15.2667 138.985 15.56 140.292C15.8533 141.585 16 143.085 16 144.792V155.372ZM5.02 149.692H12.06V145.472C12.06 141.805 10.9 139.972 8.58 139.972H8.46C6.16667 139.972 5.02 141.805 5.02 145.472V149.692ZM16 126.642H1.12L1.12 112.642C1.12 110.642 1.44 109.228 2.08 108.402C2.70667 107.562 3.51333 107.142 4.5 107.142H4.72C5.54667 107.142 6.20667 107.408 6.7 107.942C7.18 108.475 7.49333 109.062 7.64 109.702C7.73333 109.302 7.86 108.935 8.02 108.602C8.18 108.255 8.4 107.895 8.68 107.522C8.96 107.135 9.34 106.835 9.82 106.622C10.3 106.395 10.8467 106.282 11.46 106.282H11.7C14.5667 106.282 16 108.375 16 112.562L16 126.642ZM4.5 114.362L4.5 120.962H6.6L6.6 114.362C6.6 113.348 6.25333 112.842 5.56 112.842H5.52C4.84 112.842 4.5 113.348 4.5 114.362ZM9.94 114.002L9.94 120.962H12.5V114.002C12.5 112.828 12.0733 112.242 11.22 112.242H11.16C10.3467 112.242 9.94 112.828 9.94 114.002ZM8.22 105.239H1.12V99.5391H7.78C8.28667 99.5391 8.76 99.4724 9.2 99.3391C9.62667 99.2057 10.0467 98.9857 10.46 98.6791C10.86 98.3724 11.18 97.9057 11.42 97.2791C11.66 96.6391 11.78 95.8724 11.78 94.9791C11.78 94.0991 11.66 93.3457 11.42 92.7191C11.18 92.0924 10.86 91.6257 10.46 91.3191C10.0467 90.9991 9.62667 90.7724 9.2 90.6391C8.76 90.5057 8.28667 90.4391 7.78 90.4391H1.12L1.12 84.7591H8.22C8.88667 84.7591 9.54 84.8257 10.18 84.9591C10.82 85.0924 11.52 85.3724 12.28 85.7991C13.04 86.2257 13.7 86.7791 14.26 87.4591C14.82 88.1391 15.2933 89.0924 15.68 90.3191C16.0533 91.5457 16.24 92.9591 16.24 94.5591V95.3591C16.24 97.0124 16.0533 98.4591 15.68 99.6991C15.2933 100.939 14.82 101.906 14.26 102.599C13.7 103.279 13.04 103.832 12.28 104.259C11.5067 104.672 10.8067 104.939 10.18 105.059C9.55333 105.179 8.9 105.239 8.22 105.239ZM4.74 77.3287H7.3V70.8087C7.3 69.6621 6.87333 69.0887 6.02 69.0887H6C5.16 69.0887 4.74 69.6621 4.74 70.8087V77.3287ZM10.9 77.3287H16L16 83.0087H1.12L1.12 69.4887C1.12 65.3154 2.39333 63.2287 4.94 63.2287H5.16C5.66667 63.2287 6.12667 63.3287 6.54 63.5287C6.95333 63.7287 7.28667 63.9954 7.54 64.3287C7.79333 64.6487 7.99333 64.9687 8.14 65.2887C8.28667 65.5954 8.4 65.9087 8.48 66.2287C8.69333 65.2821 9.10667 64.5354 9.72 63.9887C10.32 63.4421 11.0867 63.1687 12.02 63.1687H14.22C14.9933 63.1687 15.5533 63.0754 15.9 62.8887H16V68.6887C15.8667 68.8087 15.6067 68.8687 15.22 68.8687H13.48C12.6 68.8687 11.9533 69.1021 11.54 69.5687C11.1133 70.0221 10.9 70.7954 10.9 71.8887V77.3287ZM16.28 51.6806V52.1406C16.28 53.7006 16.12 55.0873 15.8 56.3006C15.4667 57.514 15.0533 58.4806 14.56 59.2006C14.0533 59.9206 13.46 60.514 12.78 60.9806C12.0867 61.4473 11.42 61.7673 10.78 61.9406C10.1267 62.1006 9.46 62.1806 8.78 62.1806H8.22C7.51333 62.1806 6.84667 62.1006 6.22 61.9406C5.58 61.7806 4.92667 61.4673 4.26 61.0006C3.58 60.5206 3 59.9073 2.52 59.1606C2.02667 58.4006 1.62667 57.3806 1.32 56.1006C1 54.8073 0.84 53.3206 0.84 51.6406V50.8606C0.84 49.1273 0.979999 47.6073 1.26 46.3006C1.52667 44.9806 1.86 43.9673 2.26 43.2606C2.64667 42.5406 3.12 41.9606 3.68 41.5206C4.22667 41.0673 4.72667 40.774 5.18 40.6406C5.62 40.5073 6.08667 40.434 6.58 40.4206H6.6L6.6 46.3406C6.48 46.3673 6.36667 46.414 6.26 46.4806C6.14 46.534 5.98 46.6673 5.78 46.8806C5.58 47.094 5.41333 47.3606 5.28 47.6806C5.13333 47.9873 5.00667 48.4473 4.9 49.0606C4.78 49.674 4.72 50.374 4.72 51.1606C4.72 54.5873 5.94667 56.3006 8.4 56.3006H8.62C9.67333 56.3006 10.5667 55.8806 11.3 55.0406C12.02 54.2006 12.38 52.9206 12.38 51.2006C12.38 50.4673 12.3333 49.8006 12.24 49.2006C12.1333 48.6006 12.0067 48.1206 11.86 47.7606C11.7133 47.3873 11.5533 47.074 11.38 46.8206C11.2067 46.554 11.0467 46.374 10.9 46.2806C10.7533 46.174 10.6267 46.1206 10.52 46.1206V51.3406H7.62L7.62 40.3206H16V43.9006C15.2133 44.0606 14.5267 44.294 13.94 44.6006C15.5 46.014 16.28 48.374 16.28 51.6806ZM1.12 38.497L1.12 22.037H4.76V32.897H6.62V22.257H10.24V32.897H12.28V21.877H16L16 38.497H1.12ZM4.74 14.5553H7.3V8.03531C7.3 6.88865 6.87333 6.31531 6.02 6.31531H6C5.16 6.31531 4.74 6.88865 4.74 8.03531V14.5553ZM10.9 14.5553H16V20.2353H1.12L1.12 6.71531C1.12 2.54198 2.39333 0.455311 4.94 0.455311H5.16C5.66667 0.455311 6.12667 0.555311 6.54 0.755311C6.95333 0.955311 7.28667 1.22198 7.54 1.55531C7.79333 1.87531 7.99333 2.19531 8.14 2.51531C8.28667 2.82198 8.4 3.13531 8.48 3.45531C8.69333 2.50864 9.10667 1.76198 9.72 1.21531C10.32 0.668644 11.0867 0.395311 12.02 0.395311H14.22C14.9933 0.395311 15.5533 0.301978 15.9 0.115312H16V5.91531C15.8667 6.03531 15.6067 6.09531 15.22 6.09531H13.48C12.6 6.09531 11.9533 6.32864 11.54 6.79531C11.1133 7.24864 10.9 8.02198 10.9 9.11531V14.5553Z" fill="#FFFEFE"/>
</svg>
